<svg width="800" height="600" viewBox="0 0 800 600" fill="none" xmlns="http://www.w3.org/2000/svg">
  <!-- Serveur central -->
  <rect x="350" y="250" width="100" height="100" rx="10" fill="#1E40AF"/>
  <rect x="360" y="270" width="80" height="10" rx="2" fill="#60A5FA"/>
  <rect x="360" y="290" width="80" height="10" rx="2" fill="#60A5FA"/>
  <rect x="360" y="310" width="80" height="10" rx="2" fill="#60A5FA"/>
  
  <!-- Connexions réseau -->
  <circle cx="200" cy="150" r="40" fill="#059669"/>
  <circle cx="600" cy="150" r="40" fill="#059669"/>
  <circle cx="200" cy="450" r="40" fill="#059669"/>
  <circle cx="600" cy="450" r="40" fill="#059669"/>
  
  <!-- Lignes de connexion -->
  <path d="M240 150 L350 250" stroke="#93C5FD" stroke-width="4" stroke-dasharray="10 5"/>
  <path d="M560 150 L450 250" stroke="#93C5FD" stroke-width="4" stroke-dasharray="10 5"/>
  <path d="M240 450 L350 350" stroke="#93C5FD" stroke-width="4" stroke-dasharray="10 5"/>
  <path d="M560 450 L450 350" stroke="#93C5FD" stroke-width="4" stroke-dasharray="10 5"/>
  
  <!-- Éléments décoratifs -->
  <circle cx="400" cy="100" r="30" fill="#FCD34D" fill-opacity="0.3"/>
  <circle cx="400" cy="500" r="30" fill="#F87171" fill-opacity="0.3"/>
  <circle cx="100" cy="300" r="25" fill="#34D399" fill-opacity="0.3"/>
  <circle cx="700" cy="300" r="25" fill="#34D399" fill-opacity="0.3"/>
</svg> 