<svg width="800" height="600" viewBox="0 0 800 600" fill="none" xmlns="http://www.w3.org/2000/svg">
  <!-- Cercle décoratif de fond -->
  <circle cx="400" cy="300" r="200" fill="#DBEAFE" fill-opacity="0.3"/>
  
  <!-- Serveurs -->
  <g transform="translate(250, 150)">
    <!-- Serveur 1 -->
    <rect x="0" y="0" width="300" height="60" rx="10" fill="#1E40AF"/>
    <rect x="20" y="20" width="40" height="20" rx="5" fill="#60A5FA"/>
    <circle cx="80" cy="30" r="8" fill="#34D399"/>
    <rect x="100" y="20" width="180" height="8" rx="4" fill="#60A5FA"/>
    <rect x="100" y="35" width="140" height="8" rx="4" fill="#60A5FA"/>
    
    <!-- Serveur 2 -->
    <rect x="0" y="80" width="300" height="60" rx="10" fill="#1E40AF"/>
    <rect x="20" y="100" width="40" height="20" rx="5" fill="#60A5FA"/>
    <circle cx="80" cy="110" r="8" fill="#F87171"/>
    <rect x="100" y="100" width="180" height="8" rx="4" fill="#60A5FA"/>
    <rect x="100" y="115" width="140" height="8" rx="4" fill="#60A5FA"/>
    
    <!-- Serveur 3 -->
    <rect x="0" y="160" width="300" height="60" rx="10" fill="#1E40AF"/>
    <rect x="20" y="180" width="40" height="20" rx="5" fill="#60A5FA"/>
    <circle cx="80" cy="190" r="8" fill="#FCD34D"/>
    <rect x="100" y="180" width="180" height="8" rx="4" fill="#60A5FA"/>
    <rect x="100" y="195" width="140" height="8" rx="4" fill="#60A5FA"/>
  </g>

  <!-- Points de connexion -->
  <circle cx="200" cy="200" r="10" fill="#FCD34D"/>
  <circle cx="600" cy="200" r="10" fill="#FCD34D"/>
  <circle cx="200" cy="400" r="10" fill="#FCD34D"/>
  <circle cx="600" cy="400" r="10" fill="#FCD34D"/>
</svg> 