<svg width="800" height="600" viewBox="0 0 800 600" fill="none" xmlns="http://www.w3.org/2000/svg">
  <!-- Écran d'ordinateur -->
  <rect x="100" y="100" width="600" height="400" rx="20" fill="#E5E7EB"/>
  <rect x="120" y="120" width="560" height="340" rx="10" fill="#F9FAFB"/>
  
  <!-- Éléments de l'interface -->
  <rect x="140" y="140" width="200" height="40" rx="5" fill="#DBEAFE"/>
  <rect x="140" y="200" width="520" height="20" rx="5" fill="#EEF2FF"/>
  <rect x="140" y="240" width="480" height="20" rx="5" fill="#EEF2FF"/>
  <rect x="140" y="280" width="520" height="20" rx="5" fill="#EEF2FF"/>
  
  <!-- Code -->
  <rect x="140" y="340" width="240" height="100" rx="5" fill="#1E40AF"/>
  <rect x="160" y="360" width="180" height="10" rx="2" fill="#60A5FA"/>
  <rect x="160" y="380" width="160" height="10" rx="2" fill="#93C5FD"/>
  <rect x="160" y="400" width="200" height="10" rx="2" fill="#60A5FA"/>
  
  <!-- Éléments décoratifs -->
  <circle cx="680" cy="160" r="20" fill="#FCD34D"/>
  <circle cx="630" cy="160" r="20" fill="#F87171"/>
  <circle cx="580" cy="160" r="20" fill="#34D399"/>
</svg> 